<?xml version="1.0" encoding="UTF-8" standalone="no"?>
<!-- Created with Inkscape (http://www.inkscape.org/) -->

<svg
   width="113.54297mm"
   height="79.076004mm"
   viewBox="0 0 113.54297 79.076004"
   version="1.1"
   id="svg1"
   xml:space="preserve"
   inkscape:version="1.4.3 (0d15f75042, 2025-12-25)"
   sodipodi:docname="logoAzul.html"
   inkscape:dataloss="true"
   xmlns:inkscape="http://www.inkscape.org/namespaces/inkscape"
   xmlns:sodipodi="http://sodipodi.sourceforge.net/DTD/sodipodi-0.dtd"
   xmlns="http://www.w3.org/2000/svg"
   xmlns:svg="http://www.w3.org/2000/svg"><sodipodi:namedview
     id="namedview1"
     pagecolor="#ffffff"
     bordercolor="#000000"
     borderopacity="0.25"
     inkscape:showpageshadow="2"
     inkscape:pageopacity="0.0"
     inkscape:pagecheckerboard="0"
     inkscape:deskcolor="#d1d1d1"
     inkscape:document-units="mm"
     inkscape:zoom="2.0881594"
     inkscape:cx="140.07552"
     inkscape:cy="167.13284"
     inkscape:window-width="1440"
     inkscape:window-height="831"
     inkscape:window-x="1366"
     inkscape:window-y="32"
     inkscape:window-maximized="1"
     inkscape:current-layer="layer1"><inkscape:page
       x="0"
       y="0"
       width="113.54297"
       height="79.076004"
       id="page2"
       margin="0"
       bleed="0" /></sodipodi:namedview><defs
     id="defs1" /><g
     inkscape:label="Capa 1"
     inkscape:groupmode="layer"
     id="layer1"
     transform="translate(-3.4326,-6.12872)"><g
       id="g12"
       transform="matrix(0.98549285,0,0,0.98718129,-47.139405,-38.687197)"><g
         id="path2"
         style="opacity:1"><path
           style="baseline-shift:baseline;display:inline;overflow:visible;vector-effect:none;fill:#ffff00;fill-opacity:0;enable-background:accumulate;stop-color:#000000;stop-opacity:1"
           d="m 63.881245,100.12243 -11.51296,13.93202 h 48.874075"
           id="path3" /><path
           style="baseline-shift:baseline;display:inline;overflow:visible;vector-effect:none;fill:#0177fd;fill-opacity:1;enable-background:accumulate;stop-color:#000000;stop-opacity:1"
           d="M 64.254446,99.658941 52.087891,114.1875 h 49.439389 l -0.4118,-1.21592 -46.121019,-0.0317 9.65317,-11.71922 z"
           id="path4"
           sodipodi:nodetypes="ccccccc" /></g><path
         style="baseline-shift:baseline;display:inline;overflow:visible;opacity:1;vector-effect:none;fill:#0072fe;fill-opacity:1;enable-background:accumulate;stop-color:#000000;stop-opacity:1"
         d="m 152.5918,98.603516 -0.65111,1.648234 10.5255,12.55031 -47.07848,0.007 0.13439,1.43036 50.10876,-0.007 z"
         id="path7"
         sodipodi:nodetypes="ccccccc" /><path
         style="baseline-shift:baseline;display:inline;overflow:visible;opacity:1;vector-effect:none;fill:#0071fd;fill-opacity:1;enable-background:accumulate;stop-color:#000000;stop-opacity:1"
         d="m 134.94423,77.821059 -0.20703,1.866367 8.15293,10.437463 0.0278,-2.314342 z"
         id="path8"
         sodipodi:nodetypes="ccccc" /><path
         style="baseline-shift:baseline;display:inline;overflow:visible;opacity:1;vector-effect:none;fill:#006ffd;fill-opacity:1;enable-background:accumulate;stop-color:#000000;stop-opacity:1"
         d="m 108.77734,46.167969 -16.509762,19.888672 0.964683,1.153513 15.410689,-18.657033 15.60123,18.194626 0.34762,-1.450872 z"
         id="path9"
         sodipodi:nodetypes="ccccccc" /><path
         style="baseline-shift:baseline;display:inline;overflow:visible;opacity:1;vector-effect:none;fill:#0173fc;fill-opacity:1;enable-background:accumulate;stop-color:#000000;stop-opacity:1"
         d="m 82.162782,78.093903 -7.793462,9.37684 -0.27007,2.638746 8.361687,-10.263786 z"
         id="path10"
         sodipodi:nodetypes="ccccc" /><path
         style="fill:#0070fc;fill-opacity:1;stroke:#0071fa;stroke-width:0.264583;stroke-opacity:1"
         d="m 142.92491,77.924487 c 9.05544,7.366345 12.17205,25.544723 0.63354,30.916383 -8.01549,2.53661 -12.62961,1.33173 -17.35879,0.25341 -2.96916,-1.13153 -5.05521,-3.26137 -6.08191,-6.58873 -0.91849,-4.750391 0.49325,-7.934104 1.39377,-11.783707 -2.60697,5.415817 -4.61124,11.742547 -5.8285,16.218427 -1.93271,5.51163 -3.76936,12.52817 -3.8012,12.92406 -1.19079,2.05601 -2.42819,4.27513 -3.29436,5.19497 -1.05589,-0.94654 -2.11178,-3.1002 -3.16767,-5.19497 -3.27412,-11.14573 -6.071181,-19.00597 -9.502983,-28.508955 0.621686,4.41657 2.757702,8.454558 -0.380119,13.811005 -4.766053,7.06815 -20.668059,5.89792 -24.581059,1.9006 -11.905582,-10.2387 -0.179528,-27.726321 2.660838,-29.015787 -0.83126,9.834967 -2.871174,11.899158 0.126706,19.259386 6.15771,5.507481 11.121856,4.544281 13.811007,0 0.569337,-10.231969 -5.896592,-23.981571 -8.869455,-35.98464 l -0.633532,-4.05461 c 14.921571,0.506517 32.288367,42.700423 30.282847,39.912544 18.88408,-40.483443 25.92263,-38.381063 30.53626,-40.165956 0.77212,2.805361 -3.44483,14.092138 -5.70179,22.046929 -2.91582,8.580951 -4.82826,15.837437 -3.54778,18.879265 2.64638,3.362239 9.19787,4.758669 12.54394,0 4.10154,-4.321369 1.48131,-12.167368 0.76024,-20.019624 z"
         id="path11"
         sodipodi:nodetypes="ccccccccccccccccccccccc" /></g></g></svg>
