<?xml version="1.0" standalone="no"?>
<!DOCTYPE svg PUBLIC "-//W3C//DTD SVG 20010904//EN"
 "http://www.w3.org/TR/2001/REC-SVG-20010904/DTD/svg10.dtd">
<svg version="1.0" xmlns="http://www.w3.org/2000/svg"
 width="512.000000pt" height="512.000000pt" viewBox="0 0 512.000000 512.000000"
 preserveAspectRatio="xMidYMid meet">
<metadata>
Created by potrace 1.16, written by Peter Selinger 2001-2019
</metadata>
<g transform="translate(0.000000,512.000000) scale(0.100000,-0.100000)"
fill="#000000" stroke="none">
<path d="M2494 3838 c-11 -13 -32 -39 -47 -60 -15 -20 -32 -42 -39 -50 -7 -7
-26 -31 -43 -53 -32 -44 -30 -41 -107 -136 -29 -36 -64 -80 -78 -98 -13 -18
-35 -44 -47 -57 -13 -14 -23 -28 -23 -32 0 -4 -16 -24 -35 -45 -19 -20 -39
-45 -45 -55 -8 -12 -13 -14 -16 -4 -3 7 -30 46 -60 88 -30 42 -61 88 -68 102
-17 34 -115 135 -181 187 -47 38 -54 40 -127 44 -101 4 -120 -1 -174 -51 -55
-51 -66 -71 -90 -168 -38 -157 -8 -432 68 -625 18 -45 47 -140 76 -248 10 -34
8 -40 -21 -75 -18 -21 -43 -54 -57 -72 -14 -18 -40 -52 -58 -74 -17 -23 -59
-76 -92 -118 -33 -42 -65 -80 -70 -83 -6 -4 -10 31 -10 99 0 123 -26 218 -88
323 -34 56 -43 64 -100 87 -101 42 -127 37 -221 -44 -79 -68 -164 -254 -187
-407 -3 -26 -8 -57 -11 -68 -25 -126 -32 -230 -29 -420 2 -129 7 -218 14 -231
6 -11 14 -42 17 -68 6 -44 4 -50 -31 -94 -22 -26 -43 -53 -49 -60 -5 -7 -17
-21 -25 -31 -8 -9 -28 -34 -45 -56 -16 -22 -37 -47 -46 -56 -9 -9 -36 -43 -59
-75 -24 -33 -55 -73 -69 -90 -57 -69 -67 -81 -100 -123 -62 -82 -145 -75 1014
-81 l1028 -5 27 -100 c26 -95 88 -236 110 -250 6 -3 7 -11 4 -17 -4 -6 -2 -8
4 -4 6 3 14 2 17 -4 4 -6 29 -28 56 -50 47 -37 50 -38 116 -34 76 5 138 35
171 82 62 89 121 230 147 355 l5 27 1068 0 c1061 0 1068 0 1090 20 12 12 22
22 22 24 0 2 -35 47 -77 99 -88 107 -295 366 -402 502 -58 73 -70 95 -66 115
4 14 9 108 12 209 8 277 -19 485 -89 676 -23 61 -53 123 -68 140 -15 17 -40
47 -55 68 -36 48 -81 67 -159 67 -106 0 -145 -43 -231 -248 -10 -23 -21 -70
-24 -104 l-6 -62 -45 54 c-57 70 -54 65 -159 197 -103 129 -99 90 -31 313 21
69 46 157 54 195 9 39 23 95 32 125 12 42 14 82 10 168 -5 104 -8 120 -41 187
-25 52 -49 84 -82 113 -67 55 -84 62 -149 62 -50 0 -64 -5 -123 -44 -59 -39
-109 -86 -178 -171 -13 -14 -23 -29 -23 -31 0 -8 -53 -88 -73 -111 -18 -20
-20 -20 -35 -4 -10 9 -29 35 -44 56 -15 22 -40 54 -56 71 -16 17 -39 44 -51
60 -12 16 -33 43 -46 59 -14 17 -72 90 -130 163 -113 142 -132 154 -171 110z
m-887 -565 c413 -537 714 -1355 853 -2314 16 -111 31 -203 33 -205 2 -2 9 40
16 93 20 163 69 444 111 636 116 525 275 972 484 1362 126 236 329 526 352
502 3 -3 -27 -101 -66 -218 -230 -689 -321 -1187 -265 -1452 29 -138 109 -242
210 -273 68 -20 317 -30 419 -15 167 24 263 97 311 237 43 127 64 376 47 574
-10 117 -2 164 17 94 50 -189 71 -350 71 -539 0 -235 -27 -339 -110 -429 -86
-93 -237 -136 -480 -136 -250 0 -367 26 -434 95 -51 52 -107 161 -136 265 -47
168 -39 304 46 818 14 85 23 156 21 159 -8 7 -84 -128 -142 -252 -167 -353
-264 -686 -415 -1430 -23 -110 -43 -208 -46 -219 -10 -30 -22 -5 -39 79 -172
843 -274 1206 -439 1560 -52 111 -146 278 -153 272 -2 -3 5 -54 16 -113 59
-313 75 -446 75 -634 1 -183 1 -186 -31 -280 -48 -141 -110 -232 -185 -271
-67 -34 -223 -52 -412 -46 -348 10 -485 95 -537 332 -17 78 -18 383 0 490 18
114 60 298 70 308 4 4 6 -88 3 -205 -7 -314 20 -472 99 -591 68 -103 191 -146
419 -147 262 0 357 38 425 170 48 94 59 154 59 315 -1 300 -80 661 -270 1236
-40 124 -74 230 -74 237 0 26 20 9 77 -65z"/>
</g>
</svg>
